<?xml version="1.0" encoding="UTF-8"?>
<svg width="256px" height="256px" viewBox="0 0 256 256" version="1.1" xmlns="http://www.w3.org/2000/svg" xmlns:xlink="http://www.w3.org/1999/xlink">
    <title>parquetkit</title>
    <g id="parquetkit" stroke="none" fill="none" fill-rule="evenodd">
        <g id="Group" stroke-width="1">
            <path d="M242.794,142.205739 C260.402,154.627618 260.402,175.063293 242.794,187.585583 L159.944,246.489102 C142.335,258.910982 113.664,258.910982 96.056,246.489102 L13.206,187.685088 C-4.402,175.263208 -4.402,154.827534 13.206,142.305244 L96.056,83.4017244 C113.665,70.9798445 142.336,70.9798445 159.944,83.4017244 L242.794,142.205739 Z" id="Path" fill="#406887" fill-rule="nonzero"></path>
            <path d="M96.255,209.722799 L13.038,150.560565 C4.648,144.614671 0,136.652438 0,128.186346 C0,119.71935 4.648,111.758021 13.038,105.811223 L96.255,46.5485795 C104.645,40.6017809 115.982,37.2764947 128,37.2764947 C140.018,37.2764947 151.242,40.6017809 159.745,46.5485795 L242.962,105.710813 C251.352,111.656707 256,119.61894 256,128.085032 C256,136.552028 251.352,144.513357 242.962,150.460155 L159.745,209.622389 C151.242,215.669597 140.018,218.995788 128,218.995788 C115.982,218.995788 104.758,215.669597 96.255,209.723703 L96.255,209.722799 Z" id="Path" fill-opacity="0.1" fill="#000000" fill-rule="nonzero"></path>
            <path d="M96.255,209.722799 L13.038,150.560565 C4.648,144.614671 0,136.652438 0,128.186346 C0,119.71935 4.648,111.758021 13.038,105.811223 L96.255,46.5485795 C104.645,40.6017809 115.982,37.2764947 128,37.2764947 C140.018,37.2764947 151.242,40.6017809 159.745,46.5485795 L242.962,105.710813 C251.352,111.656707 256,119.61894 256,128.085032 C256,136.552028 251.352,144.513357 242.962,150.460155 L159.745,209.622389 C151.242,215.669597 140.018,218.995788 128,218.995788 C115.982,218.995788 104.758,215.669597 96.255,209.723703 L96.255,209.722799 Z" id="Path" fill="#4D92C7" fill-rule="nonzero"></path>
            <path d="M96.255,172.447208 L13.038,113.284975 C4.648,107.338177 0,99.3759435 0,90.9098516 C0,82.4437597 4.648,74.4824311 13.038,68.5356325 L96.255,9.27208481 C104.645,3.32619081 115.982,0 128,0 C140.018,0 151.242,3.32619081 159.745,9.27208481 L242.962,68.434318 C251.352,74.3811166 256,82.3433498 256,90.8094417 C256,99.2755336 251.352,107.237767 242.962,113.184565 L159.745,172.346799 C151.242,178.394007 140.018,181.719293 128,181.719293 C115.982,181.719293 104.758,178.394007 96.255,172.447208 Z" id="Path" fill="#50ABF1" fill-rule="nonzero"></path>
        </g>
        <path d="M185.300587,93.3097499 C186.954989,94.3898459 190.220064,96.2061508 192.55469,97.3467903 C198.934219,100.456304 202.639011,103.023349 203.173472,104.701614 C203.45285,105.580706 202.765338,106.488858 200.953027,107.629498 C199.993425,108.234933 195.567111,111.189456 191.114073,114.194835 C180.658582,121.256144 179.244921,122.112991 171.524659,125.210118 L170.744409,125.522276 C170.477186,125.628935 170.202642,125.7383 169.920237,125.850669 C159.884504,129.841696 157.122309,131.687062 145.801438,141.967348 C142.738001,144.749927 136.994967,148.908055 135.160792,149.670903 C133.936389,150.18189 132.61967,150.097129 131.261651,149.421463 C130.600862,149.092107 129.29386,148.20575 128.358552,147.452589 C125.97048,145.532149 123.378341,143.902318 118.932591,141.531435 C114.314356,139.068525 112.90775,138.063503 112.604079,137.005203 C112.283402,135.893624 112.628373,135.48435 116.624689,132.234375 C117.170256,131.790851 117.76798,131.303439 118.371569,130.810096 L118.975399,130.316182 C120.280501,129.247843 121.540695,128.211058 122.285124,127.5919 C126.208559,124.329816 133.423791,119.854441 140.432528,116.333231 C143.447378,114.822065 148.340132,111.826373 150.830237,109.968899 C151.792268,109.252398 153.787507,107.493391 155.773345,105.628653 L156.313921,105.118171 C156.762901,104.691758 157.206499,104.264282 157.632477,103.84674 C162.814326,98.7731951 162.794891,98.7877255 166.013808,96.6105813 C168.55736,94.891146 175.043781,91.5806276 177.276374,90.8637925 C179.873372,90.0282923 180.636194,90.2607793 185.300587,93.3097499 Z M186.38679,57.8970044 C189.564408,60.0087616 192.822195,62.0987231 193.623887,62.5394798 C196.177156,63.9440889 200.630194,66.9736855 201.823016,68.1167468 C203.100865,69.3421472 203.329226,70.3059996 202.551827,71.2044652 C201.861885,71.9987958 189.3239,79.3608852 185.364025,81.2958553 C183.359793,82.2742383 179.205568,84.0784345 176.132413,85.3038349 C168.812718,88.2220315 164.141036,90.4718278 160.705905,92.7313112 C160.234607,93.0417782 159.808884,93.3329682 159.395755,93.6339421 L159.087754,93.861961 C157.75885,94.8619277 156.475878,96.0419749 154.106657,98.3997083 L153.241417,99.264417 C153.140072,99.3660627 153.036927,99.4696208 152.931917,99.5751482 C146.478162,106.061562 144.082459,107.930223 136.433927,111.779247 L135.509304,112.241608 C135.034314,112.477755 134.539884,112.72165 134.02412,112.974635 C127.319055,116.26578 122.377714,119.469741 116.90434,124.080734 C107.096968,132.343711 105.663639,133.062968 102.629354,131.241819 C101.902972,130.805906 100.158683,129.570819 98.7569358,128.497988 C95.0327095,125.6476 93.6601147,124.775774 90.0306339,122.964312 C84.2244364,120.063068 82.4801478,118.721424 82.4801478,117.15698 C82.4801478,116.009075 83.0413325,115.435123 86.5299098,113.02307 C88.245046,111.836417 91.9425492,109.177347 94.7484731,107.111603 C101.475402,102.161566 104.589856,100.199957 109.567638,97.7757954 C111.839101,96.6690603 115.830558,94.7219814 118.434844,93.4505679 C125.659794,89.9220929 130.185713,86.9264006 137.121568,81.0827422 C144.747365,74.6554445 146.333744,73.5923007 154.588748,69.3881602 C155.129717,69.1126873 155.688039,68.8252447 156.247874,68.5343408 L156.919388,68.1841393 C159.265136,66.9564306 161.525818,65.7277004 162.527934,65.1283197 C165.426174,63.3967757 171.997623,58.8753873 174.497447,56.8944041 C177.330094,54.6518729 178.391729,54.0561249 179.569974,54.0561249 C180.500423,54.0561249 181.183077,54.4411815 186.38679,57.8970044 Z M127.022945,54.2381125 C127.797915,54.671604 129.087911,55.5434303 129.889603,56.1755045 C132.122196,57.9312659 134.38637,59.3189229 138.589182,61.5009105 C146.506503,65.6130249 146.732435,66.3540773 141.210474,70.0302785 C137.36235,72.5924793 136.876475,72.967849 132.197506,76.9952024 C127.180854,81.3131647 126.517636,81.8435257 123.937644,83.5847567 C120.857201,85.6650313 117.456081,87.4498536 112.033724,89.8328457 C103.467761,93.5986512 97.0712257,97.5606177 84.9996795,106.584021 C81.2876,109.359335 77.8208871,111.846461 77.2961429,112.112853 C76.6912294,112.422836 75.8628138,112.599623 75.0343982,112.599623 C73.7589782,112.599623 73.639939,112.536657 70.2266723,110.064061 C68.3001808,108.669139 65.5234093,106.908534 64.0536397,106.152951 C54.9046271,101.44751 53,100.096179 53,98.3065136 C53,97.3693003 53.4591512,96.9188566 55.9711212,95.3931605 C56.6680423,94.9698942 57.3212665,94.5704749 57.9766362,94.1654211 L58.3345989,93.9437467 C61.3239866,92.0888499 64.5299121,90.0067881 72.2576267,84.9288224 C82.0674283,78.4845725 84.0303603,77.4117417 92.1128788,74.0842711 C98.8009381,71.3307528 103.057197,69.0688477 106.400012,66.4969599 C107.160405,65.9108989 109.42215,63.9880374 111.426381,62.2201673 C117.915232,56.4975959 121.964994,53.7997776 124.421088,53.5648688 C125.438995,53.4655775 125.822836,53.5648688 127.022945,54.2381125 Z M119.431433,21.0000443 C120.697136,20.995246 121.476964,21.3778809 123.852889,23.1699684 C126.870168,25.446404 129.141631,26.8873392 133.215686,29.1153399 C139.172505,32.3725801 140.943517,33.7093805 141.237471,35.1745332 C141.453685,36.2522074 140.785608,36.9230294 136.888896,39.543352 C131.673036,43.0548748 129.80242,44.1180186 124.537972,46.5639759 C114.677154,51.1483296 112.174901,52.7587866 105.754073,58.6533015 C99.4474245,64.4412599 97.5233624,65.6351777 88.9403934,69.0788918 C86.4284235,70.0863356 82.4078139,71.871158 80.0027362,73.0432801 C77.5976586,74.2178239 75.3019027,75.2349547 74.9010564,75.3051851 C74.5002101,75.3754156 73.7106644,75.2930764 73.1470503,75.1235546 C72.0222513,74.7820893 70.4334425,73.714102 68.0113592,71.6653101 C65.8176369,69.8102573 63.1064585,68.1126176 58.9935328,66.0153909 C55.2863121,64.1264337 53.1581828,62.4748071 53.1581828,61.4915807 C53.1581828,60.6076457 54.5356363,59.3434974 57.6136498,57.4061055 C59.2388993,56.3817095 61.4982146,54.9262438 62.632731,54.1682392 C70.2366634,49.0922724 75.0176662,46.5567107 81.7178724,44.0429447 C91.6272782,40.3231522 95.1935953,38.2646733 102.433122,32.0795496 C107.393524,27.8433676 110.10384,25.7408388 112.902848,23.9948183 L113.370571,23.7068112 C113.448796,23.6592586 113.527189,23.6119049 113.605801,23.5647121 C117.060367,21.489281 118.156013,21.0073547 119.431433,21.0000443 Z" id="Combined-Shape" fill="#FFFFFF"></path>
    </g>
</svg>